<svg class="logo" width="107" height="64" viewBox="0 0 107 64" fill="none" xmlns="http://www.w3.org/2000/svg">
  <path d="M37.473 13.0506L42.3702 12.3274C42.6137 12.2966 42.8285 12.5582 42.7712 12.8044L36.4277 36.7173C36.2988 37.1943 36.7284 37.7175 37.201 37.6867L40.2653 37.3789C40.8524 37.3174 41.3249 36.9019 41.4538 36.3018L42.1698 33.2704C42.227 33.0242 42.4132 32.8549 42.6566 32.8395L43.4442 32.7626C43.6733 32.7626 43.8738 32.9934 43.8308 33.2396L43.1721 36.0556C43.0576 36.5326 43.4871 37.0404 43.9454 37.0096L47.0383 36.6865C47.6254 36.6249 48.098 36.2095 48.2268 35.6093L48.8999 32.701C48.9571 32.4548 49.1433 32.2855 49.3867 32.2701L55.2433 31.7777C58.0499 31.4854 60.7992 29.2541 61.3863 26.7613L62.7753 20.7753C63.3481 18.2979 61.5581 16.5283 58.7372 16.8053L57.4485 16.9284C58.4365 16.0512 59.1811 14.9433 59.4389 13.8046L60.1405 10.804C60.7133 8.3265 58.9234 6.55688 56.1025 6.83387L57.2623 1.87895C57.3769 1.40192 56.9473 0.894118 56.4891 0.924894L53.3961 1.24804C52.809 1.30959 52.3365 1.72507 52.2076 2.3252L51.1337 6.92619C51.0764 7.1724 50.8902 7.32628 50.6611 7.35706L49.8592 7.44938C49.6301 7.48016 49.4153 7.21856 49.4726 6.97236L50.5036 2.55602C50.6182 2.07899 50.1886 1.57119 49.7304 1.60196L46.6374 1.92511C46.0503 1.98666 45.5778 2.40214 45.4489 3.00227L44.3749 7.60326C44.3177 7.84947 44.1315 8.00335 43.9024 8.03412L38.2606 8.60348C37.788 8.64964 37.4157 8.98818 37.3155 9.4652L36.6998 12.0812C36.5852 12.5736 37.0291 13.0968 37.5017 13.0198H37.473V13.0506ZM43.3153 28.2693L48.1839 12.3274C48.2555 12.0965 48.4273 11.9581 48.6564 11.9427L53.3818 11.4656C54.3126 11.3579 54.9283 11.9581 54.7135 12.7736L54.3555 14.2662C54.1694 15.0818 53.2386 15.8358 52.3079 15.9435C51.7208 16.0051 51.2482 16.4206 51.1193 17.0207L50.7327 18.698L50.5466 19.4828C50.432 19.9598 50.8616 20.4676 51.3198 20.4368L56.3459 19.9136C57.2767 19.8059 57.8924 20.406 57.6776 21.2216L56.618 25.7149C56.4318 26.5304 55.5011 27.2844 54.5703 27.3922L43.258 28.3462V28.2385H43.301L43.3153 28.2693ZM64.4506 29.885L67.1713 18.2363C67.2859 17.7593 67.6439 17.4054 68.1164 17.3746L71.4098 17.0361C71.8824 16.9899 72.2976 17.4823 72.1831 17.9901L69.4624 29.6388C69.3479 30.1158 68.9899 30.4698 68.5173 30.5005L65.2239 30.8391C64.7514 30.8852 64.3361 30.3928 64.4506 29.885ZM67.7584 13.8815L68.3885 11.2194C68.503 10.7424 68.861 10.3885 69.3335 10.3577L72.627 10.0192C73.0995 9.97301 73.5148 10.4654 73.4002 10.9732L72.7702 13.6353C72.6556 14.1124 72.2976 14.4663 71.8251 14.4971L68.5317 14.8356C68.0591 14.8818 67.6439 14.3893 67.7584 13.8815ZM102.726 26.4689C102.597 26.9151 102.239 27.2229 101.795 27.2691L74.5028 30.0697C74.0303 30.1158 73.615 29.6234 73.7296 29.1156L78.8989 6.98774C79.0134 6.51072 79.3714 6.1568 79.8439 6.12602L83.1374 5.78748C83.6099 5.74132 84.0252 6.23374 83.9106 6.74154L83.2376 9.66525C83.1803 9.91146 83.3951 10.1577 83.6242 10.1423L93.9628 9.08051C94.4353 9.03434 94.8506 9.52676 94.736 10.0346L94.106 12.6967C93.9914 13.1737 93.6335 13.5276 93.1609 13.5584L82.0634 14.6971L79.7294 24.6685C79.6721 24.9147 79.8869 25.1609 80.116 25.1455L102.726 22.8219C103.213 22.7758 103.628 23.3144 103.499 23.7914L102.726 26.4689Z" fill="#2B2E64"></path>
  <path d="M37.1608 38.6115C36.6782 38.6115 36.2114 38.3653 35.8964 37.9421C35.5771 37.5128 35.4668 36.9588 35.6014 36.4603L41.7315 13.3537L37.5889 13.9646C37.473 13.9816 37.357 13.9723 37.2467 13.94C36.8716 13.8969 36.5121 13.7015 36.2429 13.3814C35.8835 12.9567 35.7432 12.3858 35.8663 11.8549L36.4806 9.24669C36.6654 8.39112 37.3484 7.7633 38.1832 7.68174L43.5988 7.13547L44.6154 2.78222C44.8302 1.80201 45.5906 1.10493 46.5557 1.00337L49.6487 0.680226C49.6587 0.680226 49.6687 0.678687 49.6788 0.677148C50.1799 0.641756 50.6797 0.883347 51.0148 1.32036C51.2038 1.56657 51.3226 1.84971 51.367 2.14208L51.3756 2.10515C51.5904 1.12494 52.3508 0.426325 53.3159 0.326303L56.406 0.00623409C56.416 0.00623409 56.426 0.0046953 56.4361 0.0031565C56.9358 -0.030697 57.437 0.209355 57.7721 0.646372C58.0985 1.07108 58.216 1.60504 58.0957 2.10977L57.2064 5.90597C58.4866 6.02138 59.5691 6.5538 60.2736 7.43553C61.0397 8.3942 61.2889 9.66986 60.9753 11.0255L60.2736 14.0293C60.1333 14.6463 59.8741 15.2649 59.509 15.8574C60.9323 15.9051 62.1438 16.4498 62.9084 17.4085C63.6745 18.3671 63.9236 19.6428 63.6101 20.9985L62.2211 26.9859C61.5452 29.8588 58.5167 32.3655 55.3277 32.6979C55.322 32.6979 55.3177 32.6979 55.312 32.6979L49.6773 33.1719L49.063 35.8263C48.8482 36.8065 48.0879 37.5036 47.1228 37.6051L44.0298 37.9283C44.0198 37.9283 44.0097 37.9298 43.9997 37.9314C43.4985 37.9637 42.9988 37.7252 42.6637 37.2881C42.469 37.0342 42.3473 36.7419 42.3086 36.4387L42.29 36.5203C42.0752 37.499 41.3148 38.196 40.3497 38.2976L37.2825 38.6054C37.2725 38.6054 37.2639 38.6069 37.2539 38.6084C37.2238 38.61 37.1923 38.6115 37.1622 38.6115H37.1608ZM37.2553 36.9681V36.9712C37.2553 36.9712 37.2553 36.9696 37.2553 36.9681ZM42.4088 11.401C42.7568 11.401 43.0933 11.5641 43.331 11.8549C43.5973 12.1812 43.7004 12.6197 43.6045 13.0275C43.6016 13.0367 43.6002 13.0475 43.5973 13.0567L37.3126 36.748L40.185 36.4603C40.4099 36.4372 40.5717 36.3002 40.6161 36.094C40.6161 36.0879 40.6189 36.0817 40.6204 36.074L41.3363 33.0426C41.4824 32.4148 41.985 31.9639 42.5893 31.9178L43.3668 31.8424C43.3926 31.8393 43.4184 31.8393 43.4441 31.8393C43.8164 31.8393 44.1687 32.0178 44.4107 32.3302C44.6455 32.6348 44.7429 33.0272 44.6756 33.4088C44.6727 33.4273 44.6684 33.4458 44.6641 33.4642L44.0541 36.0694L46.9552 35.7663C47.1829 35.7417 47.3461 35.6062 47.3891 35.4C47.3891 35.3954 47.392 35.3893 47.392 35.3847L48.065 32.4763C48.2125 31.8424 48.7179 31.3899 49.3251 31.3469L55.1674 30.856C57.5959 30.599 60.0603 28.6217 60.5529 26.5335L61.9404 20.5507C62.118 19.7813 62.002 19.1088 61.6025 18.6087C61.0569 17.9255 60.0402 17.6023 58.8145 17.7239L57.5243 17.847C57.1492 17.8824 56.7969 17.6516 56.6537 17.2777C56.5105 16.9037 56.6108 16.4729 56.9014 16.2159C57.7821 15.4342 58.4021 14.4755 58.604 13.5861L59.3071 10.5793C59.4847 9.81143 59.3672 9.13898 58.9692 8.63887C58.4236 7.95565 57.4069 7.6325 56.1812 7.75406C55.9034 7.78176 55.6313 7.66174 55.4509 7.43399C55.2705 7.20625 55.2032 6.89849 55.2705 6.6092L56.3817 1.8651L53.4806 2.16824C53.2529 2.19286 53.0896 2.32827 53.0467 2.53447C53.0467 2.54063 53.0438 2.54524 53.0424 2.5514L51.9684 7.15239C51.8281 7.7556 51.357 8.1957 50.7685 8.27418C50.7642 8.27418 50.7584 8.27418 50.7541 8.27571L49.9566 8.36804C49.5714 8.41574 49.1847 8.25263 48.9184 7.93103C48.6478 7.60326 48.5447 7.16163 48.6406 6.75077L49.6229 2.54371L46.7218 2.84685C46.4941 2.87147 46.3309 3.00688 46.2879 3.21308C46.2879 3.21924 46.2851 3.22385 46.2837 3.23001L45.2097 7.831C45.0694 8.43421 44.5983 8.87431 44.0112 8.95278C44.0026 8.95278 43.994 8.95432 43.9854 8.95586L38.3436 9.52522C38.282 9.53137 38.1803 9.55753 38.156 9.6714C38.1546 9.6791 38.1531 9.68679 38.1503 9.69448L37.5832 12.1027H37.5918L42.2556 11.4149C42.2613 11.4149 42.2671 11.4149 42.2728 11.4133C42.3186 11.4072 42.3659 11.4041 42.4117 11.4041L42.4088 11.401ZM44.0069 36.2772V36.2802C44.0069 36.2802 44.0069 36.2787 44.0069 36.2772ZM56.4289 1.65428C56.4289 1.65428 56.4289 1.65582 56.4289 1.65736V1.65428ZM65.1651 31.7654C64.7069 31.7654 64.2659 31.5469 63.9594 31.1653C63.6258 30.7498 63.4969 30.1897 63.6143 29.6665C63.6143 29.6634 63.6143 29.6619 63.6158 29.6588L66.3365 18.0101C66.5498 17.1207 67.22 16.5144 68.0462 16.4529L71.3267 16.1159C71.8322 16.0666 72.3348 16.2882 72.6713 16.7083C73.005 17.1238 73.1338 17.6839 73.0164 18.2071L70.2943 29.8635C70.081 30.7513 69.4108 31.3592 68.5846 31.4207L65.304 31.7577C65.2568 31.7623 65.211 31.7639 65.1637 31.7639L65.1651 31.7654ZM71.301 17.9747L68.198 18.2933C68.1879 18.2933 68.1779 18.2948 68.1679 18.2963C68.0634 18.3025 68.0204 18.3933 68.0032 18.4671L65.3327 29.9004L68.4357 29.5819C68.4457 29.5819 68.4557 29.5803 68.4657 29.5788C68.5703 29.5726 68.6132 29.4818 68.6304 29.408L71.301 17.9747ZM74.4441 30.996C73.9873 30.996 73.5448 30.7775 73.2398 30.3959C72.9062 29.9804 72.7773 29.4203 72.8947 28.8971L78.0654 6.76154C78.2788 5.87366 78.9475 5.26583 79.7752 5.20428L83.0557 4.86729C83.5612 4.81804 84.0638 5.03963 84.4003 5.45972C84.7339 5.8752 84.8628 6.43532 84.7454 6.95851L84.2414 9.15129L93.8811 8.16184C94.388 8.11106 94.8892 8.33419 95.2257 8.75428C95.5594 9.16975 95.6882 9.72987 95.5708 10.2531L94.9379 12.9244C94.7245 13.8108 94.0558 14.417 93.2296 14.4786L82.7478 15.5542L80.7346 24.1545L102.643 21.9033C103.164 21.854 103.674 22.0895 104.013 22.5342C104.346 22.9697 104.462 23.5359 104.323 24.0484C104.321 24.0545 104.32 24.0591 104.318 24.0653L103.545 26.7428C103.315 27.5399 102.66 28.1077 101.877 28.1877L74.583 30.9883C74.5357 30.9929 74.4899 30.9945 74.4426 30.9945L74.4441 30.996ZM83.0285 6.72615L79.9255 7.04468C79.9155 7.04468 79.9055 7.04622 79.8954 7.04776C79.7909 7.05391 79.7479 7.1447 79.7308 7.21856L74.6116 29.131L101.714 26.3504C101.783 26.3427 101.873 26.3104 101.906 26.195L102.609 23.7606L80.1976 26.0642C80.1875 26.0642 80.179 26.0657 80.1689 26.0673C79.7823 26.0934 79.4 25.9134 79.1451 25.5841C78.8974 25.264 78.8043 24.8378 78.8959 24.4454L81.23 14.4724C81.3188 14.0939 81.6195 13.8154 81.9818 13.7784L93.0792 12.6397C93.0893 12.6397 93.0993 12.6382 93.1093 12.6367C93.2139 12.6305 93.2568 12.5397 93.274 12.4659L93.8525 10.0192L83.7058 11.0609C83.6958 11.0609 83.6872 11.0625 83.6772 11.064C83.292 11.0917 82.9082 10.9101 82.6533 10.5808C82.4056 10.2608 82.3125 9.83451 82.4042 9.44212L83.0299 6.72615H83.0285ZM84.0724 9.88376V9.88683C84.0724 9.88683 84.0724 9.88683 84.0724 9.88376ZM43.258 29.2695C43.0432 29.2695 42.8341 29.1818 42.6752 29.0248C42.4991 28.8494 42.3988 28.6047 42.3988 28.3462V28.2385C42.3988 28.0108 42.4761 27.8015 42.6036 27.6414L47.3676 12.0396C47.5495 11.4549 48.0149 11.0671 48.5862 11.0225L53.3016 10.547C54.0805 10.4562 54.7836 10.7193 55.2146 11.2687C55.5869 11.7426 55.7072 12.3781 55.5425 13.0137L55.1874 14.4971C54.9196 15.6681 53.6939 16.7114 52.3994 16.8622C52.1632 16.8868 51.9999 17.0238 51.9555 17.2284L51.4286 19.4981L56.2614 18.995C57.0446 18.9042 57.7448 19.1673 58.1773 19.7167C58.5496 20.1906 58.6699 20.8261 58.5066 21.4601L57.4499 25.9426C57.1821 27.1183 55.9564 28.1616 54.6619 28.3108C54.6533 28.3108 54.6447 28.3124 54.6376 28.3139L43.3253 29.2679C43.3024 29.2695 43.2809 29.271 43.258 29.271V29.2695ZM48.9313 12.8429L44.5109 27.3152L54.4886 26.4735C55.1001 26.3966 55.6958 25.878 55.7831 25.4948L56.8442 20.9954C56.8456 20.9877 56.8485 20.9785 56.8499 20.9708C56.8613 20.9277 56.8613 20.9015 56.8599 20.8954C56.8485 20.8846 56.7182 20.7984 56.4375 20.8307L51.4028 21.3555C51.3928 21.3555 51.3828 21.357 51.3742 21.3585C50.873 21.3924 50.3733 21.1523 50.0382 20.7153C49.7117 20.2906 49.5943 19.7567 49.7146 19.2519L49.9007 18.4702L50.2859 16.7991C50.4935 15.8281 51.2568 15.1264 52.2247 15.0249C52.8319 14.9541 53.4333 14.4324 53.5206 14.0462L53.8815 12.5428C53.8815 12.5428 53.8844 12.5289 53.8872 12.5212C53.8987 12.4782 53.8987 12.452 53.8972 12.4458C53.8858 12.4351 53.7555 12.3489 53.4748 12.3812L48.9313 12.8398V12.8429ZM68.4729 15.7619C68.0147 15.7619 67.5736 15.5434 67.2672 15.1634C66.9336 14.7479 66.8047 14.1878 66.9221 13.6646C66.9221 13.6615 66.9235 13.6584 66.925 13.6538L67.555 10.9917C67.7684 10.1053 68.4371 9.49906 69.2633 9.4375L72.5439 9.10051C73.0508 9.04973 73.552 9.27285 73.8885 9.69294C74.2221 10.1084 74.351 10.6685 74.2336 11.1917L73.6007 13.8646C73.3873 14.751 72.7186 15.3572 71.8924 15.4188L68.6118 15.7558C68.5645 15.7604 68.5187 15.7619 68.4715 15.7619H68.4729ZM72.5181 10.9578L69.4165 11.2764C69.4065 11.2764 69.3965 11.2779 69.3865 11.2794C69.2819 11.2856 69.239 11.3764 69.2218 11.4502L68.6433 13.8969L71.7449 13.5784C71.7549 13.5784 71.7649 13.5769 71.7749 13.5753C71.8795 13.5692 71.9224 13.4784 71.9396 13.4045L72.5181 10.9578Z" fill="#2E80E2"></path>
  <path d="M37.1637 37.8421C36.8945 37.8421 36.6353 37.7021 36.4563 37.462C36.2802 37.2251 36.2186 36.9373 36.2902 36.6742L42.6337 12.7613C42.648 12.7013 42.628 12.6259 42.5793 12.5659C42.5277 12.5028 42.4561 12.472 42.3874 12.4797L37.4931 13.2029C37.4601 13.2076 37.4258 13.1999 37.3985 13.1814C37.1694 13.1783 36.9432 13.066 36.7742 12.8659C36.5766 12.632 36.4964 12.3243 36.5623 12.0442L37.178 9.42827C37.2911 8.88815 37.7121 8.50346 38.2491 8.45114L43.8909 7.88178C44.0656 7.8587 44.1974 7.74021 44.2375 7.56633L45.3114 2.96533C45.4517 2.31135 45.9672 1.84201 46.6245 1.77277L49.7175 1.44962C49.9967 1.43116 50.2716 1.56657 50.4606 1.81432C50.6396 2.04667 50.7055 2.33135 50.6425 2.59602L49.6115 7.01083C49.5958 7.07853 49.6172 7.15393 49.6674 7.21548C49.716 7.27396 49.7819 7.30627 49.842 7.29704L50.6468 7.20471C50.8244 7.18163 50.9547 7.06314 50.9962 6.88926L52.0701 2.28826C52.2105 1.63428 52.726 1.16495 53.3832 1.0957L56.4762 0.772553C56.7554 0.754087 57.0304 0.889501 57.2194 1.13725C57.3984 1.3696 57.4642 1.65428 57.4012 1.91895L56.29 6.66613C57.7563 6.57073 59.0036 7.02929 59.7295 7.93872C60.341 8.7035 60.5357 9.73449 60.2794 10.8424L59.5778 13.8431C59.3501 14.8464 58.7515 15.8604 57.8738 16.7345L58.7243 16.6529C60.278 16.5006 61.604 16.9591 62.3643 17.9101C62.9757 18.6749 63.1705 19.7059 62.9142 20.8138L61.5252 26.7997C60.9281 29.3326 58.1172 31.6346 55.2576 31.9316L49.3981 32.424C49.2177 32.4348 49.0817 32.5564 49.0387 32.7379L48.3657 35.6462C48.2254 36.3018 47.7099 36.7711 47.0526 36.8388L43.9597 37.162C43.6833 37.182 43.4055 37.045 43.2165 36.7973C43.0375 36.5649 42.9716 36.2802 43.0346 36.0156L43.6933 33.2011C43.7076 33.1211 43.6661 33.0518 43.6403 33.018C43.5902 32.9534 43.5186 32.9149 43.4456 32.9149L42.6709 32.9918C42.4891 33.0041 42.353 33.1242 42.3101 33.3073L41.5941 36.3387C41.4538 36.9927 40.9383 37.462 40.281 37.5313L37.2167 37.839C37.1995 37.839 37.1823 37.839 37.1666 37.839L37.1637 37.8421ZM42.4074 12.1719C42.5521 12.1719 42.6924 12.2412 42.7926 12.3643C42.9043 12.4997 42.9473 12.6782 42.9101 12.8429L36.5652 36.7603C36.5208 36.9265 36.5623 37.1127 36.6797 37.2697C36.81 37.4436 37.0048 37.5436 37.1923 37.5328L40.2524 37.2251C40.7851 37.1697 41.2018 36.7926 41.3149 36.2664L42.0323 33.2319C42.1053 32.9195 42.3473 32.7041 42.6494 32.6856L43.4327 32.6087H43.4341C43.6031 32.6087 43.7578 32.6887 43.8594 32.821C43.9582 32.9487 43.9983 33.1103 43.9726 33.2673L43.3124 36.0925C43.2723 36.2602 43.3182 36.4449 43.437 36.6018C43.5673 36.7696 43.7592 36.868 43.9368 36.8557L47.0254 36.5326C47.5581 36.4772 47.9748 36.1002 48.0879 35.5739L48.7609 32.6625C48.834 32.3486 49.076 32.1347 49.3781 32.1147L55.2318 31.6223C57.9783 31.3361 60.6789 29.1371 61.2474 26.7212L62.6364 20.7353C62.8698 19.7274 62.6951 18.7934 62.1467 18.1071C61.4479 17.233 60.2107 16.8129 58.7501 16.9561L57.4614 17.0792C57.3998 17.0868 57.3397 17.0468 57.3167 16.9838C57.2924 16.9207 57.3096 16.8499 57.3583 16.8068C58.3706 15.9081 59.0594 14.8279 59.3 13.7646L60.0016 10.7624C60.235 9.7545 60.0603 8.82045 59.5119 8.13414C58.8131 7.26011 57.5759 6.84002 56.1154 6.98313C56.0695 6.98774 56.0237 6.96774 55.9936 6.92927C55.9636 6.8908 55.9521 6.84002 55.9636 6.79232L57.1234 1.8374C57.1635 1.66967 57.1177 1.48501 56.9989 1.32806C56.87 1.16033 56.6781 1.06338 56.4991 1.07416L53.4104 1.3973C52.8778 1.4527 52.4611 1.8297 52.3479 2.35597L51.274 6.96004C51.2052 7.25703 50.9776 7.46631 50.6797 7.50632L49.875 7.59864C49.7246 7.62019 49.5657 7.55094 49.454 7.41553C49.3409 7.27857 49.2965 7.097 49.3351 6.93235L50.3661 2.51601C50.4062 2.34828 50.3604 2.16208 50.2416 2.00667C50.1127 1.83894 49.9208 1.74199 49.7418 1.75276L46.6531 2.07591C46.1205 2.13131 45.7038 2.50831 45.5906 3.03458L44.5167 7.63865C44.448 7.93564 44.2203 8.14492 43.9224 8.18493L38.2763 8.75428C37.8654 8.79429 37.5432 9.08512 37.4573 9.49598L36.8401 12.1165C36.7986 12.2966 36.853 12.4982 36.9861 12.6567C37.1079 12.8013 37.2711 12.8829 37.4315 12.8706C37.4444 12.8659 37.4587 12.8644 37.4744 12.8644H37.5031C37.526 12.8644 37.5475 12.8706 37.5661 12.8798L42.3516 12.1735C42.3702 12.1704 42.3903 12.1704 42.4089 12.1704L42.4074 12.1719ZM65.1637 30.996C64.916 30.996 64.6726 30.8744 64.5036 30.6636C64.3175 30.4313 64.2473 30.1358 64.3117 29.8496L67.0324 18.2009C67.167 17.6408 67.5894 17.2561 68.1078 17.2238L71.3955 16.8853C71.669 16.8591 71.9439 16.9822 72.1301 17.2146C72.3162 17.4469 72.3864 17.7439 72.322 18.0286L69.6013 29.6788C69.4667 30.2389 69.0443 30.6221 68.5259 30.6559L65.2368 30.9945C65.2124 30.9976 65.1881 30.9976 65.1623 30.9976L65.1637 30.996ZM64.5895 29.9219C64.548 30.1097 64.5953 30.3066 64.7198 30.4621C64.8458 30.619 65.0306 30.7036 65.211 30.6852L68.5044 30.3466C68.9011 30.3205 69.2218 30.0281 69.3249 29.6003L72.0456 17.9532C72.0871 17.767 72.0399 17.5685 71.9153 17.4131C71.7893 17.2546 71.606 17.1699 71.4242 17.1899L68.1307 17.5285C67.7341 17.5546 67.4133 17.847 67.3102 18.2748L64.5895 29.9219ZM74.4427 30.2266C74.195 30.2266 73.9515 30.1051 73.7825 29.8942C73.5964 29.6619 73.5262 29.3649 73.5907 29.0802L78.7599 6.95081C78.8946 6.39069 79.317 6.00599 79.8353 5.97214L83.1245 5.6336C83.398 5.60744 83.6729 5.72901 83.8591 5.96291C84.0452 6.19526 84.1154 6.49225 84.0509 6.77693L83.3779 9.70064C83.3636 9.76373 83.3808 9.83297 83.4252 9.88991C83.4753 9.95454 83.5483 9.99301 83.6156 9.98685L93.9499 8.92509C94.2234 8.89739 94.4983 9.02203 94.6845 9.25439C94.8706 9.48674 94.9408 9.78219 94.8764 10.0684L94.2463 12.7321C94.1117 13.2922 93.6893 13.6753 93.1709 13.7092L82.1794 14.8371L79.8697 24.7039C79.8554 24.7654 79.8726 24.8347 79.917 24.8932C79.9671 24.9578 80.0387 24.9947 80.1074 24.9901L102.713 22.6665C102.993 22.6388 103.273 22.7727 103.462 23.0204C103.644 23.259 103.71 23.5621 103.637 23.8329L102.862 26.5135C102.716 27.0213 102.312 27.3691 101.808 27.4214L74.5157 30.222C74.4914 30.2251 74.467 30.2251 74.4412 30.2251L74.4427 30.2266ZM83.1989 5.93829C83.1832 5.93829 83.1674 5.93829 83.1503 5.94136L79.8568 6.2799C79.4602 6.30606 79.1394 6.59843 79.0363 7.02775L73.867 29.1541C73.8255 29.3403 73.8728 29.5388 73.9973 29.6942C74.1233 29.8512 74.3066 29.9358 74.4885 29.9173L101.781 27.1167C102.168 27.0767 102.477 26.8105 102.589 26.4243L103.362 23.7468C103.408 23.5775 103.362 23.379 103.24 23.2189C103.11 23.0497 102.922 22.9604 102.739 22.9758L80.1303 25.2994C79.9671 25.3117 79.8053 25.2332 79.6964 25.0932C79.5919 24.9593 79.5547 24.7916 79.5905 24.6331L81.9245 14.6617C81.9388 14.5986 81.989 14.5525 82.0491 14.5463L93.1466 13.4076C93.5432 13.3814 93.864 13.0891 93.9671 12.6613L94.5971 9.99916C94.6387 9.81297 94.5914 9.616 94.4668 9.46059C94.3408 9.30209 94.1575 9.21746 93.9757 9.23746L83.6385 10.2992C83.4724 10.3115 83.3135 10.2331 83.2047 10.093C83.1001 9.95915 83.0629 9.79143 83.0987 9.63293L83.7717 6.70922C83.8132 6.52149 83.766 6.32452 83.6414 6.1691C83.5254 6.026 83.3636 5.9429 83.1989 5.9429V5.93829ZM43.258 28.5001C43.2222 28.5001 43.1879 28.4862 43.1606 28.4585C43.1306 28.4293 43.1148 28.3878 43.1148 28.3462V28.2385C43.1148 28.1677 43.1592 28.1092 43.2194 28.0908L48.0478 12.2797C48.1366 11.9919 48.3614 11.8088 48.6478 11.7888L53.3689 11.3118C53.9173 11.2487 54.3927 11.4133 54.6677 11.7642C54.8896 12.0473 54.9555 12.4212 54.851 12.8152L54.4944 14.3047C54.2954 15.1772 53.3216 15.9805 52.3236 16.0959C51.7895 16.1513 51.3728 16.5283 51.2597 17.0545L50.6855 19.5197C50.6454 19.6874 50.6912 19.8721 50.81 20.0275C50.9389 20.1952 51.1322 20.2937 51.3098 20.2814L56.3316 19.7582C56.8814 19.6936 57.3554 19.8598 57.6318 20.2106C57.8537 20.4937 57.9196 20.8677 57.8151 21.2616L56.7569 25.7503C56.5578 26.6228 55.5841 27.4275 54.586 27.543L43.2695 28.497C43.2695 28.497 43.2623 28.497 43.258 28.497V28.5001ZM53.5966 11.6072C53.5321 11.6072 53.4648 11.6118 53.3975 11.6195L48.6707 12.0965C48.4932 12.1089 48.3743 12.2058 48.3213 12.3766L43.4972 28.1723L54.5603 27.2398C55.4295 27.1398 56.3101 26.4243 56.4805 25.6795L57.5401 21.1847C57.6189 20.8831 57.5759 20.6168 57.4141 20.4122C57.2008 20.1414 56.817 20.0152 56.3631 20.0675L51.3356 20.5907C51.0592 20.6107 50.7814 20.4737 50.5924 20.226C50.4134 19.9936 50.3475 19.709 50.4105 19.4443L50.5967 18.6595L50.9833 16.9838C51.1236 16.3282 51.6391 15.8589 52.2964 15.7912C53.1684 15.6896 54.0491 14.9756 54.2195 14.2308L54.5775 12.7367C54.6562 12.4351 54.6133 12.1704 54.4514 11.9642C54.2696 11.7334 53.966 11.6087 53.5994 11.6087L53.5966 11.6072ZM68.4715 14.9926C68.2238 14.9926 67.9804 14.871 67.8114 14.6602C67.6252 14.4278 67.5551 14.1308 67.6195 13.8462C67.6195 13.8462 67.6195 13.8461 67.6195 13.8446L68.2496 11.1825C68.3842 10.6224 68.8066 10.2392 69.3249 10.2054L72.6141 9.86683C72.8876 9.84067 73.1625 9.96223 73.3487 10.1961C73.5348 10.4285 73.605 10.7255 73.5406 11.0102L72.9105 13.6738C72.7759 14.2339 72.3535 14.6171 71.8351 14.6509L68.546 14.9895C68.5216 14.9926 68.4973 14.9926 68.4715 14.9926ZM67.8973 13.9185C67.8558 14.1062 67.903 14.3032 68.0276 14.4586C68.1536 14.6171 68.3383 14.7017 68.5188 14.6817L71.8122 14.3432C72.2089 14.317 72.5296 14.0246 72.6327 13.5969L73.2628 10.9348C73.3043 10.7486 73.257 10.5516 73.1325 10.3962C73.0064 10.2377 72.8217 10.153 72.6413 10.173L69.3479 10.5116C68.9512 10.5377 68.6305 10.8301 68.5274 11.2594L67.8973 13.92V13.9185Z" fill="white"></path>
  <path d="M18.8292 61.8458L13.0585 62.4613L21.8362 27.0536L7.10164 28.654L7.073 18.9596L34.5948 15.9281L23.3254 61.2456" fill="#2B2E64"></path>
  <path d="M13.0585 64.0001C12.6404 64.0001 12.2409 63.8031 11.9674 63.4584C11.6638 63.0737 11.5536 62.5536 11.6753 62.0658L19.9204 28.8094L7.24632 30.1866C6.84538 30.2297 6.44444 30.0897 6.14373 29.7988C5.84303 29.508 5.67119 29.0941 5.66976 28.6601L5.64112 18.9657C5.63826 18.1748 6.19528 17.51 6.927 17.43L34.4488 14.3986C34.917 14.3478 35.3795 14.5463 35.6845 14.931C35.9895 15.3157 36.0998 15.8373 35.9781 16.3267L24.7088 61.6442C24.504 62.4644 23.7193 62.9522 22.9561 62.7336C22.1914 62.5136 21.7375 61.6703 21.9423 60.8502L32.676 17.687L8.50929 20.3491L8.52934 26.9536L21.6931 25.5241C22.1613 25.4733 22.6224 25.6718 22.9274 26.0565C23.2324 26.4412 23.3427 26.9628 23.221 27.4506L14.9759 60.7117L18.6889 60.3162C19.475 60.2316 20.1767 60.8502 20.2554 61.695C20.3342 62.5413 19.7586 63.2938 18.9724 63.3784L13.2017 63.9939C13.1545 63.9985 13.1072 64.0016 13.06 64.0016L13.0585 64.0001Z" fill="#2E80E2"></path>
  <path d="M13.0585 63.0768C12.891 63.0768 12.732 62.9983 12.6218 62.8598C12.5 62.706 12.4557 62.4982 12.5043 62.3028L21.0687 27.7553L7.15893 29.2664C6.99713 29.2833 6.83818 29.2279 6.7179 29.111C6.59762 28.994 6.52888 28.8294 6.52888 28.6555L6.50024 18.9611C6.50024 18.6441 6.72219 18.3794 7.01431 18.3471L34.5361 15.3157C34.7222 15.2957 34.9084 15.3742 35.0301 15.5281C35.1518 15.6819 35.1962 15.8912 35.1475 16.0866L23.8782 61.4041C23.7966 61.7319 23.483 61.9289 23.1765 61.8396C22.8715 61.7519 22.6897 61.4149 22.7713 61.0856L33.8273 16.6314L7.64722 19.5151L7.67157 27.9738L21.7775 26.4412C21.9651 26.4196 22.1498 26.4997 22.2716 26.6551C22.3933 26.809 22.4377 27.0167 22.389 27.2121L13.8246 61.7611L18.7719 61.2333C19.0855 61.1995 19.3676 61.4472 19.3991 61.7842C19.4306 62.1227 19.2001 62.4244 18.885 62.4582L13.1143 63.0737C13.0957 63.0753 13.0771 63.0768 13.0571 63.0768H13.0585Z" fill="#56CAEA"></path>
  <path d="M13.0586 62.6152C13.0171 62.6152 12.977 62.5952 12.9498 62.5613C12.9197 62.5228 12.9083 62.4705 12.9212 62.4213L21.6459 27.229L7.11755 28.8063C7.07745 28.8094 7.03736 28.7971 7.00729 28.7678C6.97722 28.7386 6.96004 28.6971 6.96004 28.654L6.9314 18.9596C6.9314 18.8811 6.98724 18.8134 7.06027 18.8057L34.582 15.7743C34.6293 15.7696 34.6751 15.7896 34.7052 15.8281C34.7353 15.8666 34.7467 15.9189 34.7353 15.9681L23.4659 61.2856C23.4459 61.3672 23.3671 61.4164 23.2912 61.3949C23.2153 61.3734 23.1695 61.2887 23.1896 61.2072L34.403 16.1036L7.21635 19.0981L7.24356 28.4832L21.8206 26.8997C21.8679 26.8967 21.9137 26.9151 21.9438 26.9536C21.9739 26.9921 21.9853 27.0444 21.9739 27.0936L13.2491 62.2874L18.8136 61.6934C18.8923 61.6873 18.9625 61.7473 18.9697 61.8319C18.9768 61.9166 18.9195 61.992 18.8408 61.9996L13.0701 62.6152C13.0701 62.6152 13.0601 62.6152 13.0558 62.6152H13.0586Z" fill="white"></path>
  <path d="M8.34888 58.999C8.22716 58.999 8.10258 58.9821 7.97944 58.9467C7.21478 58.7282 6.76086 57.8849 6.9642 57.0632L12.8208 33.4427C13.0241 32.621 13.8088 32.1332 14.5735 32.3517C15.3381 32.5702 15.7921 33.4135 15.5887 34.2352L9.73212 57.8557C9.56172 58.5435 8.98179 58.999 8.34888 58.999ZM2.40492 25.1917C1.61592 25.1917 0.975849 24.5054 0.972986 23.6575L0.944347 13.9785C0.941483 13.1875 1.49851 12.5228 2.23022 12.4428L29.752 9.41135C30.5381 9.32517 31.2412 9.93915 31.3228 10.7855C31.403 11.6303 30.8317 12.3858 30.0441 12.4735L3.81251 15.3619L3.83685 23.6467C3.83972 24.4961 3.19964 25.1871 2.40922 25.1901H2.40492V25.1917Z" fill="#685BC7"></path>
  <path d="M8.3474 58.0757C8.29872 58.0757 8.2486 58.0696 8.19991 58.0542C7.89491 57.9665 7.71306 57.6295 7.79325 57.3002L13.6499 33.6797C13.7315 33.3519 14.0451 33.1549 14.3515 33.2442C14.6565 33.3319 14.8384 33.6689 14.7582 33.9982L8.90156 57.6187C8.83283 57.8941 8.60229 58.0757 8.34884 58.0757H8.3474ZM2.40488 24.2684C2.08985 24.2684 1.83354 23.9945 1.83211 23.6544L1.80347 13.9754C1.80347 13.6584 2.02542 13.3937 2.31753 13.3614L29.8393 10.33C30.1529 10.2962 30.435 10.5408 30.4679 10.8794C30.5008 11.2179 30.2717 11.5195 29.9567 11.5549L2.95045 14.5294L2.97765 23.6513C2.97765 23.9914 2.72277 24.2684 2.40631 24.2684H2.40488Z" fill="#9D8AFD"></path>
  <path d="M8.34751 57.6141C8.33606 57.6141 8.32317 57.6125 8.31028 57.6095C8.23439 57.5879 8.18857 57.5033 8.20861 57.4217L14.0652 33.8012C14.0853 33.7197 14.164 33.6704 14.2399 33.692C14.3158 33.7135 14.3616 33.7982 14.3416 33.8797L8.48498 57.5002C8.46779 57.5695 8.41052 57.6141 8.34608 57.6141H8.34751ZM2.40499 23.8068C2.32623 23.8068 2.26179 23.7375 2.26179 23.6529L2.23315 13.9739C2.23315 13.8954 2.289 13.8277 2.36203 13.82L29.8838 10.7886C29.9626 10.7809 30.0327 10.8409 30.0413 10.9255C30.0499 11.0102 29.9926 11.0856 29.9139 11.0948L2.51954 14.1124L2.54818 23.6529C2.54818 23.7375 2.48517 23.8068 2.40499 23.8068Z" fill="white"></path>
  <path d="M1.83075 9.81912C1.10619 9.81912 0.483302 9.22977 0.407409 8.43729C0.327221 7.59249 0.898562 6.8354 1.68613 6.74923L24.9694 4.17944C25.7541 4.09019 26.4586 4.70725 26.5402 5.55359C26.6204 6.39838 26.049 7.15547 25.2615 7.24164L1.97824 9.81143C1.92812 9.81758 1.87944 9.81912 1.83075 9.81912Z" fill="#685BC7"></path>
  <path d="M1.83213 8.89584C1.54144 8.89584 1.29372 8.66041 1.26365 8.34342C1.23071 8.00488 1.45982 7.70328 1.77485 7.66789L25.0581 5.0981C25.3717 5.06425 25.6538 5.30891 25.6867 5.64745C25.7196 5.98598 25.4905 6.28759 25.1755 6.32298L1.89083 8.89277C1.87079 8.89431 1.85074 8.89584 1.83213 8.89584Z" fill="#9D8AFD"></path>
  <path d="M1.83207 8.43421C1.75904 8.43421 1.69747 8.37574 1.69031 8.29572C1.68171 8.21108 1.73899 8.13568 1.81775 8.12645L25.101 5.55666C25.1812 5.54897 25.2499 5.60898 25.2585 5.69362C25.2671 5.77825 25.2098 5.85365 25.1311 5.86288L1.84639 8.43267C1.84639 8.43267 1.83636 8.43267 1.83207 8.43267V8.43421Z" fill="white"></path>
  <path d="M34.5375 60.8456C33.5781 60.8456 32.7333 60.4301 32.1605 59.6761C31.4589 58.7374 31.2155 57.3371 31.5162 55.8291L33.0626 48.012C33.6354 45.0883 36.0411 42.5185 38.4181 42.2877L44.9763 41.6414H45.0766C45.3486 41.6414 45.5921 41.7645 45.7639 41.9799C45.9644 42.2415 46.0216 42.6262 45.9501 43.0263C45.7925 43.7957 45.1911 44.442 44.5468 44.5036L37.9885 45.1498C36.8573 45.2576 35.6974 46.504 35.4253 47.9197L33.8788 55.7368C33.7357 56.4292 33.8502 57.0755 34.1652 57.491C34.4087 57.8141 34.7523 57.9834 35.1819 57.9834C35.6115 57.9834 35.2821 57.9834 35.3394 57.9834L41.8977 57.3371H41.9979C42.27 57.3371 42.5134 57.4602 42.6852 57.6756C42.8857 57.9372 42.943 58.3219 42.8714 58.722C42.7139 59.4914 42.1125 60.1377 41.4681 60.1993L34.9098 60.8456C34.7953 60.8456 34.6664 60.8609 34.5519 60.8609L34.5375 60.8456Z" fill="#EB2638"></path>
  <path d="M45.0767 41.8722C45.5635 41.8722 45.8499 42.3492 45.7354 42.9801C45.6065 43.6418 45.0624 44.2266 44.5325 44.2727L37.9743 44.919C36.7571 45.0421 35.5114 46.3655 35.2106 47.8735L33.6642 55.6906C33.3778 57.1217 34.0508 58.2142 35.1677 58.2142C36.2846 58.2142 35.2822 58.2142 35.3395 58.2142L41.8978 57.5679H41.9694C42.4562 57.5679 42.7426 58.0449 42.6281 58.6758C42.4992 59.3375 41.9551 59.9223 41.4252 59.9684L34.867 60.6147C34.7524 60.6147 34.6379 60.6301 34.5376 60.6301C32.447 60.6301 31.2012 58.5835 31.7311 55.8906L33.2775 48.0736C33.836 45.2422 36.1557 42.7647 38.4468 42.5339L45.0051 41.8876H45.0767M45.0767 41.4106H44.9621L38.4039 42.0569C35.9409 42.3031 33.4494 44.9498 32.848 47.9658L31.3015 55.7829C30.9864 57.3525 31.2442 58.8297 31.9888 59.8146C32.6045 60.6301 33.5066 61.0764 34.5233 61.0764C35.54 61.0764 34.7667 61.0764 34.8956 61.061L41.4539 60.4147C42.1698 60.3377 42.8715 59.6145 43.0433 58.7528C43.1292 58.2758 43.0433 57.8295 42.8142 57.5218C42.6137 57.2448 42.313 57.0909 41.9694 57.0909C41.6257 57.0909 41.8978 57.0909 41.8691 57.0909H41.8548L35.2966 57.7372H35.1534C34.8097 57.7372 34.509 57.5987 34.3085 57.3217C34.0365 56.9524 33.9505 56.383 34.0651 55.7675L35.6116 47.9505C35.8693 46.6425 36.9576 45.4576 37.9886 45.3653L44.5469 44.719C45.2628 44.642 45.9645 43.9188 46.1363 43.0571C46.2222 42.5801 46.1363 42.1338 45.9072 41.8261C45.7067 41.5491 45.406 41.3952 45.0624 41.3952L45.0767 41.4106Z" fill="#EB2638"></path>
  <path d="M44.4037 59.8761C44.2748 59.8761 44.146 59.8453 44.0457 59.7992C43.8166 59.6915 43.6591 59.4914 43.5732 59.2298C43.4586 58.8451 43.5159 58.3835 43.7307 57.968L45.7211 54.121C45.8357 53.9056 45.9932 53.7055 46.165 53.5363C46.4084 53.3208 46.6662 53.1977 46.9382 53.167L53.3676 52.5361L52.4082 46.027L49.8021 51.0434C49.5014 51.6128 48.9859 51.9821 48.4991 51.9821C48.0122 51.9821 48.2413 51.9513 48.1411 51.9052C47.912 51.7974 47.7544 51.5974 47.6685 51.3358C47.554 50.9511 47.6113 50.4895 47.826 50.074L52.1505 41.7491C52.4225 41.2259 52.8951 40.8566 53.3533 40.8104H53.4535C53.9118 40.8104 54.2697 41.149 54.3413 41.6568L56.5608 56.8139C56.6611 57.5064 56.2458 58.3219 55.6158 58.6758C55.4582 58.7682 55.3007 58.8143 55.1432 58.8297H55.043C54.5848 58.8297 54.2268 58.4912 54.1552 57.9834L53.7686 55.3059L47.2533 55.9522L45.7068 58.9374C45.4347 59.4606 44.9622 59.8299 44.504 59.8761H44.4037Z" fill="#EB2638"></path>
  <path d="M53.4393 41.0413C53.7972 41.0413 54.055 41.2875 54.1123 41.6876L56.3318 56.8447C56.4177 57.4294 56.0454 58.1527 55.5012 58.4604C55.3724 58.5374 55.2292 58.5835 55.1146 58.5835H55.043C54.6994 58.5835 54.4273 58.3527 54.37 57.9372L53.9404 55.0443L47.1244 55.7214L45.5207 58.8143C45.2772 59.2914 44.862 59.5991 44.4754 59.6453H44.4038C44.3035 59.6453 44.2176 59.6299 44.1317 59.5837C43.6878 59.3837 43.5876 58.7066 43.9169 58.0757L45.9073 54.2287C46.0075 54.0287 46.1507 53.8594 46.2939 53.7209C46.4944 53.5363 46.7235 53.4286 46.9383 53.3978L53.5968 52.7361L52.5085 45.3345L49.6017 50.9357C49.3439 51.4435 48.8857 51.7667 48.4848 51.7667C48.0838 51.7667 48.2986 51.7513 48.1984 51.7051C47.7545 51.5051 47.6542 50.828 47.9836 50.1971L52.308 41.8722C52.5515 41.4106 52.9524 41.0874 53.3533 41.0413H53.4249M53.4393 40.5796H53.3247C52.7806 40.6258 52.2651 41.0413 51.9501 41.6414L47.6256 49.9663C47.3679 50.4587 47.3106 50.9819 47.4538 51.4281C47.554 51.7513 47.7688 52.0129 48.0552 52.136C48.1984 52.1975 48.3416 52.2283 48.4991 52.2283C49.0719 52.2283 49.659 51.8128 49.9883 51.1665L52.2794 46.7348L53.0956 52.336L46.8953 52.9515C46.5946 52.9823 46.2796 53.1208 46.0075 53.367C45.8071 53.5363 45.6352 53.7671 45.5207 54.0133L43.5303 57.8449C43.2725 58.3373 43.2153 58.8605 43.3584 59.3068C43.4587 59.6299 43.6735 59.8915 43.9599 60.0146C44.1031 60.0762 44.2462 60.1069 44.4038 60.1069C44.5613 60.1069 44.4754 60.1069 44.5183 60.1069C45.0625 60.0608 45.5779 59.6453 45.893 59.0452L47.3822 56.1676L53.5825 55.5521L53.9404 58.0142C54.0264 58.6297 54.4703 59.0605 55.043 59.0605C55.6158 59.0605 55.1146 59.0605 55.1576 59.0605C55.3437 59.0452 55.5299 58.9836 55.7017 58.8759C56.4034 58.4758 56.8759 57.5525 56.7613 56.7831L54.5419 41.626C54.4559 41.0105 54.012 40.5796 53.4393 40.5796Z" fill="#EB2638"></path>
  <path d="M58.4938 58.4758C58.2218 58.4758 57.9783 58.3527 57.8065 58.1373C57.606 57.8757 57.5488 57.491 57.6204 57.0909C57.7779 56.3215 58.3793 55.6752 59.0236 55.6136L65.5676 54.9674C66.7131 54.8596 67.873 53.5978 68.1451 52.1821C68.2739 51.5051 68.188 50.9049 67.9016 50.4895C67.6582 50.1202 67.2859 49.9355 66.842 49.9355C66.3981 49.9355 66.7418 49.9355 66.6845 49.9355L66.6415 49.7047V49.9355H66.5699C66.2979 49.9355 66.0544 49.8124 65.8826 49.597C65.6821 49.3354 65.6249 48.9661 65.6965 48.566C65.8397 47.7966 66.4554 47.1503 67.0854 47.0887L67.1284 47.3195V47.0887C67.2286 47.0887 67.3432 47.0733 67.4721 47.0733C68.503 47.0733 69.3765 47.535 69.9493 48.3967C70.5794 49.3508 70.7798 50.6587 70.4934 52.1052C69.9207 55.0289 67.5007 57.5987 65.1237 57.8449L58.5797 58.4912H58.4795L58.4938 58.4758ZM62.9615 50.3048C61.9448 50.3048 61.0713 49.8432 60.4985 48.9968C59.8685 48.0582 59.668 46.7502 59.9544 45.3191C60.5272 42.4108 62.9185 39.8564 65.2955 39.6256L71.8681 38.9793H71.9683C72.2404 38.9793 72.4838 39.1024 72.6557 39.3178C72.8561 39.5794 72.9134 39.9641 72.8418 40.3642C72.6843 41.1336 72.0829 41.7799 71.4385 41.8414L64.8659 42.4877C63.7347 42.5954 62.6035 43.8265 62.3171 45.2422C62.1882 45.9039 62.2741 46.504 62.5462 46.9195C62.7896 47.2734 63.1476 47.4734 63.5772 47.4734C64.0068 47.4734 63.6918 47.4734 63.7633 47.4734H63.8636C64.1357 47.4734 64.3791 47.5965 64.5509 47.812C64.7514 48.0736 64.8087 48.4429 64.7371 48.843C64.5939 49.6124 63.9781 50.2586 63.3481 50.3202H63.3338C63.2049 50.3202 63.0903 50.3356 62.9615 50.3356V50.3048Z" fill="#EB2638"></path>
  <path d="M71.9684 39.1947C72.4553 39.1947 72.7417 39.6717 72.6271 40.3026C72.4982 40.9643 71.9541 41.5491 71.4243 41.5952L64.8517 42.2415C63.6346 42.3646 62.4174 43.6726 62.1167 45.1806C61.9735 45.9039 62.0738 46.5655 62.3888 47.0426C62.6752 47.458 63.0904 47.6889 63.5916 47.6889C64.0928 47.6889 63.7205 47.6889 63.7921 47.6889H63.8637C64.3505 47.6889 64.6369 48.1659 64.5224 48.7814C64.3935 49.4431 63.8637 50.0278 63.3195 50.074H63.2909C63.1763 50.074 63.0618 50.0894 62.9616 50.0894C62.0022 50.0894 61.2003 49.6739 60.6705 48.8737C60.0691 47.9812 59.8972 46.7502 60.1693 45.3807C60.7277 42.5647 63.0332 40.0872 65.3099 39.8564L71.8825 39.2101H71.9541M67.4865 47.2888C68.4459 47.2888 69.2621 47.7196 69.7919 48.5044C70.3933 49.3969 70.5794 50.6433 70.3074 52.0283C69.7489 54.8596 67.4292 57.3525 65.1238 57.5833L58.5798 58.2296H58.5082C58.0214 58.2296 57.735 57.7526 57.8496 57.1217C57.9784 56.46 58.5226 55.8752 59.0524 55.8291L65.5963 55.1828C66.8278 55.0597 68.0736 53.7363 68.3599 52.2129C68.5031 51.4743 68.4029 50.8126 68.0879 50.3356C67.8015 49.9047 67.3719 49.6893 66.8564 49.6893C66.3409 49.6893 66.7419 49.6893 66.6703 49.6893H66.5844C66.0975 49.6893 65.8111 49.2123 65.9257 48.5967C66.0545 47.9351 66.5843 47.3503 67.1285 47.3042H67.1571C67.2717 47.3042 67.3862 47.2888 67.5008 47.2888M71.9684 38.7331H71.8539L65.2813 39.3794C62.8184 39.6256 60.3411 42.2569 59.754 45.2576C59.4533 46.7502 59.6681 48.1351 60.3268 49.1199C60.9425 50.0278 61.8733 50.5202 62.9616 50.5202C64.0498 50.5202 63.205 50.5202 63.3339 50.5048C64.0641 50.4279 64.7515 49.6893 64.9233 48.843C65.0092 48.3813 64.9233 47.9197 64.6942 47.6119C64.4937 47.3349 64.193 47.1964 63.8494 47.1964C63.5057 47.1964 63.7778 47.1964 63.7348 47.1964H63.5773C63.205 47.1964 62.9186 47.0426 62.7181 46.7348C62.4747 46.3655 62.4031 45.8423 62.5177 45.2422C62.7754 43.9496 63.8494 42.7801 64.866 42.6724L71.4386 42.0261C72.1546 41.9492 72.8562 41.2259 73.0281 40.3642C73.114 39.8872 73.0281 39.4409 72.7989 39.1332C72.5985 38.8562 72.2978 38.7023 71.9541 38.7023L71.9684 38.7331ZM67.4865 46.8271C67.3719 46.8271 67.243 46.8271 67.1285 46.8425C66.3982 46.9195 65.7109 47.6581 65.539 48.5044C65.4531 48.9661 65.539 49.4277 65.7681 49.7355C65.9686 50.0124 66.2693 50.1509 66.613 50.1509C66.9567 50.1509 66.6846 50.1509 66.7275 50.1509H66.8707C67.243 50.1509 67.5581 50.3048 67.7585 50.6126C68.002 50.9819 68.0736 51.5205 67.959 52.136C67.7013 53.4439 66.613 54.6442 65.5677 54.7365L59.0237 55.3828C58.3078 55.4598 57.6061 56.183 57.4343 57.0447C57.3484 57.5218 57.4343 57.968 57.6634 58.2758C57.8639 58.5527 58.1646 58.7066 58.5082 58.7066C58.8519 58.7066 58.5798 58.7066 58.6228 58.7066L65.1667 58.0603C67.644 57.8141 70.1355 55.1674 70.737 52.136C71.0377 50.628 70.8229 49.243 70.1499 48.2428C69.5341 47.3349 68.5891 46.8271 67.5008 46.8271H67.4865Z" fill="#EB2638"></path>
  <path d="M72.8705 57.0447C72.5985 57.0447 72.355 56.9216 72.1832 56.7062C71.9827 56.4446 71.9255 56.0599 71.9971 55.6598L75.09 39.9795C75.2475 39.2101 75.849 38.5638 76.4933 38.5023H76.5936C76.8656 38.5023 77.1091 38.6254 77.2809 38.8408C77.4814 39.1024 77.5386 39.4871 77.4671 39.8872L74.3741 55.5675C74.2166 56.3369 73.6151 56.9832 72.9708 57.0447H72.8705Z" fill="#EB2638"></path>
  <path d="M76.6078 38.7331C77.0947 38.7331 77.3811 39.2101 77.2665 39.841L74.1735 55.5213C74.0447 56.183 73.5005 56.7677 72.9707 56.8139H72.8991C72.4123 56.8139 72.1259 56.3369 72.2404 55.706L75.3334 40.0257C75.4623 39.364 76.0064 38.7792 76.5362 38.7331H76.6078ZM76.6078 38.2714H76.5076C75.7916 38.3484 75.09 39.0716 74.9181 39.9333L71.8252 55.6136C71.7392 56.0907 71.8252 56.5369 72.0543 56.8447C72.2547 57.1217 72.5554 57.2755 72.8991 57.2755C73.2428 57.2755 72.9707 57.2755 73.0137 57.2755C73.7296 57.1986 74.4313 56.4754 74.6031 55.6136L77.6961 39.9333C77.782 39.4563 77.6961 39.0101 77.467 38.7023C77.2665 38.4253 76.9658 38.2714 76.6221 38.2714H76.6078Z" fill="#EB2638"></path>
  <path d="M77.9682 56.5369C77.6961 56.5369 77.4527 56.4138 77.2809 56.1984C77.0804 55.9368 77.0231 55.5521 77.0947 55.152L80.1877 39.4717C80.3023 38.887 80.7032 38.3484 81.1901 38.1176C81.3476 38.0406 81.5194 37.9945 81.6769 37.9945C82.0206 37.9945 82.3213 38.1945 82.4645 38.5176L89.1086 53.2285C89.3807 53.8133 89.123 54.6904 88.5359 55.1982C88.2781 55.429 87.9631 55.5521 87.691 55.5521C87.419 55.5521 87.0467 55.3674 86.9035 55.0289L81.7199 43.5495L79.4574 55.0443C79.2999 55.8137 78.6985 56.46 78.0541 56.5215H77.9539L77.9682 56.5369ZM88.8795 49.6124C88.6075 49.6124 88.364 49.4892 88.1922 49.2738C87.9917 49.0122 87.9345 48.6275 88.0061 48.2274L89.9248 38.5023C90.0824 37.7329 90.6838 37.0866 91.3281 37.025H91.4284C91.7004 37.025 91.9439 37.1481 92.1157 37.3635C92.3162 37.6251 92.3734 38.0098 92.3019 38.4099L90.3831 48.1351C90.2256 48.9045 89.6241 49.5508 88.9798 49.6124H88.8795Z" fill="#EB2638"></path>
  <path d="M91.4284 37.2558C91.9152 37.2558 92.2016 37.7329 92.0871 38.3638L90.1683 48.0889C90.0394 48.7506 89.4953 49.3354 88.9655 49.3815H88.8939C88.407 49.3815 88.1206 48.9045 88.2352 48.2736L90.154 38.5484C90.2828 37.8867 90.827 37.302 91.3568 37.2558H91.4284ZM81.6912 38.2253C81.949 38.2253 82.1781 38.3638 82.2926 38.6254L88.9368 53.3362C89.1659 53.8286 88.9368 54.5827 88.4213 55.0289C88.1922 55.2289 87.9345 55.3367 87.7054 55.3367C87.4762 55.3367 87.2185 55.1982 87.1039 54.9366L81.6483 42.8417L79.2426 54.9981C79.1137 55.6598 78.5696 56.2446 78.0398 56.2907H77.9682C77.4813 56.2907 77.195 55.8137 77.3095 55.1828L80.4025 39.5025C80.5027 38.9947 80.8607 38.5023 81.2903 38.3022C81.4335 38.2407 81.5624 38.2099 81.6912 38.2099M91.4284 36.7942H91.3138C90.5979 36.8711 89.8962 37.5944 89.7244 38.4561L87.8056 48.1813C87.7197 48.6583 87.8056 49.1045 88.0347 49.4123C88.2352 49.6893 88.5359 49.8432 88.8795 49.8432C89.2232 49.8432 88.9511 49.8432 88.9941 49.8432C89.7101 49.7662 90.4117 49.043 90.5835 48.1813L92.5023 38.4561C92.5882 37.9791 92.5023 37.5328 92.2732 37.2251C92.0727 36.9481 91.772 36.7942 91.4284 36.7942ZM81.6912 37.7636C81.5051 37.7636 81.3046 37.8098 81.1185 37.9021C80.56 38.1637 80.1161 38.7638 79.9872 39.4255L76.8943 55.1058C76.8083 55.5829 76.8942 56.0291 77.1234 56.3369C77.3238 56.6139 77.6245 56.7677 77.9682 56.7677C78.3119 56.7677 78.0398 56.7677 78.0828 56.7677C78.7987 56.6908 79.5004 55.9676 79.6722 55.1058L81.8058 44.2727L86.7173 55.152C86.9035 55.5675 87.2758 55.8137 87.7054 55.8137C88.1349 55.8137 88.3927 55.6598 88.6934 55.3982C89.3521 54.8135 89.6241 53.8286 89.3234 53.1516L82.6793 38.4407C82.4931 38.0252 82.1208 37.779 81.6912 37.779V37.7636Z" fill="#EB2638"></path>
  <path d="M95.4808 54.7981C94.3926 54.7981 93.4904 54.2903 92.9177 53.3516C92.3449 52.413 92.2017 51.105 92.4738 49.6585L93.9916 41.9953C94.5787 39.0562 96.9987 36.471 99.39 36.2402L102.698 35.9171C102.812 35.9171 102.941 35.9017 103.056 35.9017C104.029 35.9017 104.874 36.3172 105.447 37.0712C106.163 38.0098 106.392 39.4255 106.091 40.9336L104.559 48.6891C103.987 51.6282 101.552 54.2133 99.1609 54.4442L95.8245 54.7827C95.7099 54.7827 95.5811 54.7981 95.4665 54.7981H95.4808ZM102.44 38.7485H102.283L98.9747 39.0716C97.8292 39.1793 96.655 40.4411 96.3686 41.8876L94.8365 49.6739C94.6933 50.4125 94.8078 51.0742 95.1658 51.5051C95.3949 51.782 95.7386 51.9205 96.1538 51.9205C96.5691 51.9205 96.2827 51.9205 96.34 51.9205L99.6191 51.5974C100.765 51.4897 101.939 50.2279 102.225 48.7814L103.757 41.0259C103.901 40.318 103.8 39.6717 103.471 39.2563C103.228 38.9331 102.87 38.7638 102.44 38.7638V38.7485Z" fill="#EB2638"></path>
  <path d="M103.07 36.1171C105.175 36.1171 106.435 38.1637 105.905 40.8874L104.373 48.6429C103.815 51.4897 101.481 53.9979 99.1751 54.2287L95.8387 54.5673C95.7242 54.5673 95.6096 54.5827 95.495 54.5827C94.4927 54.5827 93.6478 54.121 93.118 53.2439C92.5739 52.336 92.445 51.0742 92.7171 49.7355L94.2349 42.0723C94.7934 39.2255 97.1274 36.7173 99.4329 36.5018L102.741 36.1787C102.855 36.1787 102.97 36.1633 103.084 36.1633M96.1537 52.1514H96.3542L99.6333 51.8282C100.879 51.7051 102.125 50.3664 102.426 48.8276L103.958 41.072C104.244 39.6256 103.571 38.5176 102.44 38.5176C101.309 38.5176 102.325 38.5176 102.254 38.5176L98.946 38.8408C97.7002 38.9639 96.4544 40.3026 96.1537 41.8261L94.6216 49.6124C94.464 50.4279 94.5929 51.1665 95.0082 51.6436C95.2946 51.9821 95.7098 52.136 96.1537 52.136M103.07 35.6555C102.941 35.6555 102.827 35.6555 102.698 35.6709L99.3899 35.994C98.1728 36.1171 96.927 36.8096 95.8673 37.9329C94.822 39.0562 94.0917 40.4719 93.8054 41.9338L92.2875 49.597C91.9868 51.105 92.1586 52.4745 92.76 53.4593C93.3615 54.4596 94.3352 55.0135 95.495 55.0135C96.6549 55.0135 95.7385 55.0135 95.8673 54.9981L99.2037 54.6596C100.421 54.5365 101.667 53.844 102.726 52.7207C103.772 51.5974 104.502 50.1817 104.788 48.7198L106.32 40.9643C106.635 39.3794 106.378 37.9021 105.633 36.9019C105.017 36.0863 104.115 35.6401 103.084 35.6401L103.07 35.6555ZM96.1537 51.6897C95.9103 51.6897 95.5666 51.6282 95.3232 51.3512C95.0082 50.9819 94.908 50.3971 95.0368 49.7355L96.569 41.9492C96.8267 40.6258 97.9293 39.4255 98.9746 39.3178L102.282 38.9947H102.426C102.784 38.9947 103.084 39.1332 103.285 39.4101C103.557 39.7795 103.657 40.3488 103.528 40.9951L101.996 48.7506C101.738 50.074 100.636 51.2742 99.5904 51.3666L96.3112 51.6897H96.1394H96.1537Z" fill="#EB2638"></path>
  <path d="M34.8499 59.5653C34.2542 59.5653 33.7301 59.3591 33.322 58.9621C32.8237 58.4773 32.5445 57.7418 32.5345 56.8908C32.4729 56.48 32.6819 55.1412 32.7235 54.9089L34.0981 47.9351C34.5406 45.7007 36.3763 43.7403 38.192 43.5664L44.7503 42.9201C44.8305 42.914 44.8992 42.9755 44.9064 43.0602C44.9135 43.1448 44.8562 43.2202 44.7775 43.2279L38.2192 43.8742C36.5195 44.0373 34.7983 45.8885 34.3802 47.9997L33.0056 54.9704C32.9139 55.4813 32.7736 56.5862 32.8194 56.8493C32.8208 56.8585 32.8223 56.8678 32.8223 56.877C32.8294 57.6479 33.0757 58.3081 33.5168 58.7359C33.9234 59.1313 34.4661 59.3083 35.0862 59.2483L41.6444 58.602C41.7246 58.5943 41.7933 58.6558 41.8005 58.7405C41.8077 58.8251 41.7504 58.9005 41.6716 58.9082L35.1134 59.5545C35.0246 59.5622 34.9387 59.5668 34.8528 59.5668L34.8499 59.5653Z" fill="white"></path>
  <path d="M44.3321 59.2452C44.3091 59.2452 44.2848 59.239 44.2633 59.2252C44.1946 59.1837 44.1688 59.0898 44.2075 59.0159L46.1979 55.1689C46.2909 54.9827 46.4313 54.7981 46.6131 54.6211C46.8279 54.4226 47.0828 54.2964 47.3348 54.2595L54.5074 53.6101L53.1556 43.8927C53.0611 43.1925 52.8979 43.1402 52.8793 43.1371C52.8019 43.1217 52.6588 43.2571 52.5628 43.4387L48.8541 50.5464C48.8154 50.6203 48.7281 50.6464 48.6594 50.6049C48.5906 50.5633 48.5663 50.4695 48.605 50.3956L52.3137 43.2864C52.4483 43.0325 52.6817 42.7801 52.9337 42.834C53.1886 42.8863 53.3547 43.2171 53.4392 43.848L54.8138 53.7271C54.8195 53.7686 54.8095 53.8117 54.7852 53.8456C54.7608 53.8794 54.725 53.8994 54.6849 53.904L47.3678 54.5657C47.1773 54.5934 46.9754 54.695 46.805 54.8519C46.6504 55.0012 46.5301 55.1582 46.4513 55.3151L44.4595 59.1636C44.4337 59.2144 44.385 59.2421 44.3335 59.2421L44.3321 59.2452Z" fill="white"></path>
  <path d="M63.2537 49.0276C62.4848 49.0276 61.8347 48.6845 61.3994 48.0412C60.9111 47.3211 60.7664 46.3255 60.9884 45.2406C61.3321 43.5187 62.5564 41.9076 63.9711 41.3198C64.3577 41.0643 65.5649 40.8566 65.8856 40.8274L71.6262 40.258C71.705 40.2503 71.7752 40.3119 71.7823 40.3965C71.7895 40.4811 71.7322 40.5565 71.6534 40.5642L65.9114 41.1336C65.5305 41.1674 64.4021 41.3844 64.1143 41.586C64.1057 41.5922 64.0971 41.5968 64.0871 41.6014C62.754 42.1507 61.5941 43.6741 61.2691 45.3068C61.0643 46.3055 61.1932 47.2134 61.6313 47.8612C62.058 48.4921 62.7296 48.7922 63.5201 48.706C63.5244 48.706 63.5301 48.706 63.5344 48.706H63.5487C63.6275 48.706 63.6919 48.7752 63.6919 48.8599C63.6919 48.9445 63.6275 49.0138 63.5487 49.0138H63.5415C63.4442 49.0245 63.3482 49.0291 63.2537 49.0291V49.0276Z" fill="white"></path>
  <path d="M73.0854 55.8752C73.0753 55.8752 73.0653 55.8752 73.0553 55.8722C72.978 55.8537 72.9278 55.7721 72.945 55.6891L76.038 40.0087C76.0538 39.9256 76.1296 39.8718 76.2084 39.8903C76.2857 39.9087 76.3358 39.9903 76.3187 40.0734L73.2257 55.7537C73.2114 55.826 73.1527 55.8752 73.0854 55.8752Z" fill="white"></path>
  <path d="M78.2834 55.2597C78.2733 55.2597 78.2647 55.2597 78.2547 55.2566C78.1774 55.2397 78.1273 55.1582 78.143 55.0751L80.9067 40.4565C80.9639 40.1365 81.1988 39.9056 81.5052 39.8687C81.8102 39.8318 82.0866 40.0026 82.2097 40.3026L88.1508 54.0872C88.1838 54.1641 88.1523 54.2549 88.0807 54.2918C88.0091 54.3288 87.9231 54.2934 87.8902 54.2164L81.9477 40.4288C81.8603 40.2149 81.677 40.158 81.5367 40.1749C81.395 40.1918 81.2289 40.2903 81.1873 40.5165L78.4237 55.1366C78.4094 55.2089 78.3507 55.2597 78.2834 55.2597Z" fill="white"></path>
  <path d="M89.2377 48.4429C89.2277 48.4429 89.2177 48.4429 89.2076 48.4398C89.1303 48.4213 89.0802 48.3398 89.0974 48.2567L91.0162 38.5315C91.0319 38.4484 91.1092 38.3945 91.1866 38.413C91.2639 38.4315 91.314 38.513 91.2968 38.5961L89.378 48.3213C89.3637 48.3936 89.305 48.4429 89.2377 48.4429Z" fill="white"></path>
  <path d="M95.8776 53.4993C95.7258 53.4993 95.584 53.4932 95.501 53.4732C94.8523 53.4039 94.311 53.0854 93.9344 52.5514C93.5364 51.9883 93.3502 51.1111 93.4476 50.2633C93.4519 50.034 93.5893 49.2846 93.6237 49.1307L95.0413 41.9168C95.4838 39.6656 97.3338 37.6913 99.1638 37.5174L102.472 37.1943C103.186 37.125 103.812 37.3343 104.283 37.7929C104.784 38.2822 105.066 39.0254 105.076 39.8872C105.135 40.2749 104.962 41.5106 104.887 41.8599L103.527 48.766C103.086 51.0096 101.237 52.99 99.4058 53.1808L96.5133 53.4732C96.5062 53.4732 96.1754 53.4978 95.8804 53.4978L95.8776 53.4993ZM95.3205 41.9799L93.9029 49.1969C93.8557 49.4138 93.734 50.1155 93.734 50.2725C93.734 50.2787 93.734 50.2848 93.734 50.291C93.6437 51.065 93.8084 51.8605 94.1635 52.3637C94.4915 52.83 94.9669 53.107 95.5382 53.1654C95.5454 53.1654 95.5525 53.167 95.5597 53.17C95.6843 53.2039 96.1883 53.1885 96.489 53.1654L99.3786 52.8731C101.094 52.6946 102.83 50.8234 103.248 48.7014L104.608 41.7922C104.697 41.3798 104.844 40.2119 104.794 39.9287C104.793 39.9195 104.791 39.9103 104.791 39.901C104.784 39.1193 104.536 38.4515 104.091 38.0175C103.68 37.6174 103.13 37.4374 102.497 37.4974L99.1896 37.8206C97.4756 37.9837 95.7401 39.8487 95.322 41.9769L95.3205 41.9799Z" fill="white"></path>
  <path d="M55.3152 57.768C55.2464 57.768 55.1863 57.7156 55.1748 57.6402L54.5591 53.7779C54.5462 53.6948 54.5978 53.6148 54.6765 53.6009C54.7553 53.5871 54.8283 53.6425 54.8412 53.7271L55.4569 57.5895C55.4698 57.6726 55.4183 57.7526 55.3395 57.7664C55.3309 57.7664 55.3238 57.768 55.3152 57.768Z" fill="white"></path>
  <path d="M58.8091 57.1986C58.7361 57.1986 58.6731 57.1386 58.6674 57.0586C58.6602 56.9739 58.7175 56.8985 58.7962 56.8908L64.524 56.3215C64.8834 56.2907 66.0304 56.0584 66.3239 55.866C66.3311 55.8614 66.3397 55.8568 66.3482 55.8537C67.7057 55.3013 68.8813 53.7594 69.2093 52.1037C69.4126 51.0973 69.2837 50.1786 68.8455 49.5169C68.416 48.883 67.7573 48.586 66.9411 48.6583H66.901C66.8222 48.6583 66.7578 48.5906 66.7578 48.5044C66.7578 48.4182 66.8222 48.3505 66.901 48.3505H66.9296C67.826 48.269 68.5935 48.6198 69.0789 49.3369C69.5658 50.0709 69.7104 51.0757 69.4899 52.1683C69.1448 53.9148 67.9005 55.5459 66.4628 56.1368C66.0762 56.3769 64.8691 56.6 64.5497 56.6277L58.8234 57.1971C58.8234 57.1971 58.8148 57.1971 58.8105 57.1971L58.8091 57.1986Z" fill="white"></path>
</svg>